<?xml version="1.0" encoding="UTF-8"?>
<svg id="Layer_1" data-name="Layer 1" xmlns="http://www.w3.org/2000/svg" xmlns:xlink="http://www.w3.org/1999/xlink" viewBox="0 0 432 432">
  <defs>
    <style>
      .cls-1 {
        fill: url(#linear-gradient);
        stroke: url(#linear-gradient-2);
      }

      .cls-1, .cls-2 {
        stroke-miterlimit: 10;
      }

      .cls-1, .cls-2, .cls-3, .cls-4, .cls-5, .cls-6 {
        stroke-width: 4px;
      }

      .cls-2 {
        fill: #ffe115;
        stroke: #e1c300;
      }

      .cls-3 {
        stroke-linecap: round;
      }

      .cls-3, .cls-4, .cls-5, .cls-6 {
        stroke-linejoin: round;
      }

      .cls-3, .cls-5 {
        fill: #e4e4d5;
        stroke: #c6c6b7;
      }

      .cls-4 {
        fill: #efefe0;
        stroke: #d1d1c2;
      }

      .cls-6 {
        fill: #ababa0;
        stroke: #8d8d82;
      }
    </style>
    <linearGradient id="linear-gradient" x1="206.64" y1="291.88" x2="205.82" y2="222.8" gradientUnits="userSpaceOnUse">
      <stop offset="0" stop-color="#9f4e00"/>
      <stop offset=".27" stop-color="#964900"/>
      <stop offset=".69" stop-color="#7f3e00"/>
      <stop offset=".82" stop-color="#773b00"/>
    </linearGradient>
    <linearGradient id="linear-gradient-2" x1="207.82" y1="394.24" x2="207.82" y2="189.06" gradientUnits="userSpaceOnUse">
      <stop offset="0" stop-color="#813000"/>
      <stop offset=".35" stop-color="#7c2e00"/>
      <stop offset=".73" stop-color="#6f2900"/>
      <stop offset="1" stop-color="#612400"/>
    </linearGradient>
  </defs>
  <g>
    <g>
      <polygon class="cls-4" points="358.6 49.48 358.6 55.81 280.87 61.8 150.76 71.84 123.41 46.14 110.12 33.66 169.22 33.66 187.67 38.24 204.95 40.95 211.72 36.25 215.51 38.06 222.75 33.66 332.43 33.66 358.6 49.48"/>
      <polygon class="cls-5" points="150.76 71.84 147.11 100.96 134.96 197.8 77.16 197.8 40.11 106.41 42.28 103.54 41.17 100.31 41.08 95.88 40.17 95.25 60.45 45.06 110.12 33.66 123.41 46.14 150.76 71.84"/>
      <polygon class="cls-6" points="372.01 157.04 317.83 197.8 134.96 197.8 302.02 169.07 372.01 157.04"/>
      <polygon class="cls-5" points="372.01 157.04 302.02 169.07 134.96 197.8 147.11 100.96 150.76 71.84 280.87 61.8 358.6 55.81 358.6 58.14 367.35 64.93 368.27 64.73 372.01 157.04"/>
    </g>
    <g>
      <path class="cls-1" d="M230.23,392.24h-44.83c12.31-31.92,10.99-173.22,10.72-194-.02-1.54.92-2.92,2.36-3.47l2.09-.8c4.66-1.78,10.08-3.12,15.54-2.89l2.09,1.8c.59-.58,1.32,3.82,1.3,5.36-.26,20.77-1.58,162.07,10.72,194Z"/>
      <path class="cls-2" d="M234.39,392.24c0,11.96-11.9,21.66-26.57,21.66s-26.57-9.7-26.57-21.66,13.16-9.79,27.83-9.79,25.31-2.17,25.31,9.79Z"/>
    </g>
  </g>
  <path class="cls-3" d="M64.22,63.31c2.29-2.94,4.59-5.88,6.88-8.82,1.55.2,3.1.4,4.65.6"/>
  <polygon class="cls-5" points="149.52 81.76 150.5 73.96 170.28 70.34 150.03 68.08 137.01 58.91 149.52 81.76"/>
  <polygon class="cls-5" points="123.71 197.8 132.33 191.28 136.6 184.75 146.69 190.42 148.47 195.48 134.96 197.8 123.71 197.8"/>
</svg>