<?xml version="1.0" encoding="UTF-8" standalone="no"?>
<!-- Created with Inkscape (http://www.inkscape.org/) -->

<svg
   width="108"
   height="108"
   viewBox="0 0 28.575 28.575001"
   version="1.1"
   id="svg1"
   inkscape:version="1.4.2 (f4327f4, 2025-05-13)"
   sodipodi:docname="unoccupied_occupant_spot_icon.svg"
   inkscape:export-filename="unoccupied_occupant_spot_icon.png"
   inkscape:export-xdpi="960"
   inkscape:export-ydpi="960"
   xmlns:inkscape="http://www.inkscape.org/namespaces/inkscape"
   xmlns:sodipodi="http://sodipodi.sourceforge.net/DTD/sodipodi-0.dtd"
   xmlns="http://www.w3.org/2000/svg"
   xmlns:svg="http://www.w3.org/2000/svg">
  <sodipodi:namedview
     id="namedview1"
     pagecolor="#505050"
     bordercolor="#eeeeee"
     borderopacity="1"
     inkscape:showpageshadow="0"
     inkscape:pageopacity="0"
     inkscape:pagecheckerboard="0"
     inkscape:deskcolor="#505050"
     inkscape:document-units="px"
     inkscape:zoom="8"
     inkscape:cx="58.5625"
     inkscape:cy="65.6875"
     inkscape:window-width="2560"
     inkscape:window-height="1494"
     inkscape:window-x="-11"
     inkscape:window-y="-11"
     inkscape:window-maximized="1"
     inkscape:current-layer="layer1" />
  <defs
     id="defs1">
    <clipPath
       clipPathUnits="userSpaceOnUse"
       id="clipPath2">
      <path
         d="M 0,108 H 108 V 0 H 0 Z"
         transform="translate(-33.446101,-50.532901)"
         id="path2" />
    </clipPath>
    <clipPath
       clipPathUnits="userSpaceOnUse"
       id="clipPath4">
      <path
         d="M 0,108 H 108 V 0 H 0 Z"
         transform="translate(-42.469201,-29.118901)"
         id="path4" />
    </clipPath>
    <clipPath
       clipPathUnits="userSpaceOnUse"
       id="clipPath6">
      <path
         d="M 0,108 H 108 V 0 H 0 Z"
         transform="translate(-77.085999,-56.137801)"
         id="path6" />
    </clipPath>
    <clipPath
       clipPathUnits="userSpaceOnUse"
       id="clipPath8">
      <path
         d="M 0,108 H 108 V 0 H 0 Z"
         transform="translate(-83.915605,-54.634402)"
         id="path8" />
    </clipPath>
    <clipPath
       clipPathUnits="userSpaceOnUse"
       id="clipPath10">
      <path
         d="M 0,108 H 108 V 0 H 0 Z"
         transform="translate(-23.522601,-67.726301)"
         id="path10" />
    </clipPath>
    <clipPath
       clipPathUnits="userSpaceOnUse"
       id="clipPath12">
      <path
         d="M 0,108 H 108 V 0 H 0 Z"
         transform="translate(-4.3363001,-63.344902)"
         id="path12" />
    </clipPath>
    <clipPath
       clipPathUnits="userSpaceOnUse"
       id="clipPath14">
      <path
         d="M 0,108 H 108 V 0 H 0 Z"
         transform="translate(-40.904601,-5.5947001)"
         id="path14" />
    </clipPath>
  </defs>
  <g
     inkscape:label="Layer 1"
     inkscape:groupmode="layer"
     id="layer1">
    <path
       d="M 14.509192,1.0912079 C 13.003648,1.1256925 11.729517,2.5593353 11.729517,2.5593353 7.6382898,1.5261276 7.6021201,6.5167166 7.6021201,6.5167166 5.7070995,5.8548203 4.8170826,7.1149075 4.4410727,7.991562 4.1098068,8.1444326 3.7357378,8.4146819 3.3165935,8.8478405 c 0,0 -3.77875141,0.2497467 -1.5265219,3.0525265 0,0 0.7007382,2.853227 2.6525514,0.600997 0,0 0.2360296,0.374795 0.666626,0.710034 l 5.167e-4,5.17e-4 1.0877889,2.693892 c 0.1311929,0.323899 0.4634103,0.519057 0.8097697,0.47439 l 0.7901327,-0.103353 0.2377116,2.776058 c 0.1508463,1.784632 1.2319456,4.21066 3.0137694,4.383712 l 0.30024,-0.05013 -0.225309,3.254065 3.731038,0.840259 3.956865,-0.968417 -1.044381,-5.119067 c -0.259578,-1.273388 0.212351,-2.569249 1.195276,-3.379122 0.301693,-0.245795 0.597803,-0.497242 0.862997,-0.779281 0.477126,-0.507172 0.88224,-1.068567 1.210262,-1.669148 0.329028,0.331985 0.812043,0.43603 1.516703,-0.06305 0,0 1.505976,1.154244 2.040702,-0.184485 0,0 2.87454,-0.08327 1.954403,-2.229321 0,0 2.253401,-0.402418 0.851628,-2.006596 0,0 1.375589,-2.0827233 -0.68368,-1.9910925 0,0 -0.311061,-2.7443754 -3.225126,-1.7032553 0,0 -0.0243,-0.02677 -0.06821,-0.068213 C 23.094748,6.0669808 21.308777,5.5250458 21.308777,5.5250458 22.124266,1.6880369 16.915764,2.5955088 16.915764,2.5955088 16.149632,1.4386776 15.29781,1.0731445 14.509192,1.0912079 Z M 7.5266725,13.99843 l 0.088883,0.769462 c -0.283345,-0.06945 -0.5268327,-0.265847 -0.6475052,-0.54622 l -0.027389,-0.06408 c 0.2429709,-0.04263 0.4564435,-0.111722 0.5860108,-0.159164 z m 1.6216065,0.117823 c 0.4054958,0.324861 0.7836731,0.530557 1.134814,0.641821 -0.3534701,0.124076 -0.7306399,0.169217 -1.1048417,0.129708 L 9.0702476,14.157594 c 0.026181,-0.01319 0.052237,-0.02707 0.078031,-0.04134 z m 7.774203,0.22996 c 0.328925,0.22881 0.848452,0.502024 1.395263,0.441316 -0.112638,0.06142 -0.22873,0.117272 -0.348816,0.168466 -0.441308,0.192705 -0.946778,-0.07819 -1.036112,-0.552938 z m -5.072559,1.408699 -0.326595,4.881356 c -0.402257,-0.02348 -0.756667,-0.273032 -0.91364,-0.644405 -0.02476,-0.05845 -0.04967,-0.119361 -0.07596,-0.181384 -0.40124,-0.945406 -0.7379607,-1.916273 -0.9911578,-2.911451 L 9.4361167,16.480966 c 0.6499793,0.125224 1.3302783,-0.01145 1.8856733,-0.38809 l 0.201538,-0.136942 z"
       style="fill:none;stroke:#000000;stroke-width:0.264583;stroke-dasharray:none;stroke-opacity:1"
       id="path17"
       sodipodi:nodetypes="sccccccccccccccccccccccccccccccsccccscscccsscccccccccccccc" />
    <text
       xml:space="preserve"
       style="font-weight:bold;font-size:4.96471px;line-height:1.3;font-family:'Tw Cen MT';-inkscape-font-specification:'Tw Cen MT Bold';text-align:start;writing-mode:lr-tb;direction:ltr;text-anchor:start;fill:#ffffff;fill-opacity:1;stroke:#000000;stroke-width:0.529167;stroke-linecap:round;stroke-linejoin:round;stroke-dasharray:none;stroke-opacity:1;paint-order:stroke fill markers"
       x="3.0431414"
       y="12.222708"
       id="text17"
       transform="scale(0.98952302,1.0105879)"><tspan
         sodipodi:role="line"
         id="tspan17"
         style="fill:#ffffff;fill-opacity:1;stroke:#000000;stroke-width:0.529167;stroke-linejoin:round;stroke-dasharray:none;stroke-opacity:1;paint-order:stroke fill markers"
         x="3.0431414"
         y="12.222708">Unoccupied</tspan></text>
  </g>
</svg>
