<?xml version="1.0" encoding="UTF-8" standalone="no"?>
<svg
   id="Layer_1"
   data-name="Layer 1"
   viewBox="0 0 108 108"
   version="1.1"
   sodipodi:docname="unselected_entity_icon.svg"
   inkscape:version="1.4.2 (f4327f4, 2025-05-13)"
   inkscape:export-filename="unselected_entity_icon.png"
   inkscape:export-xdpi="960"
   inkscape:export-ydpi="960"
   xmlns:inkscape="http://www.inkscape.org/namespaces/inkscape"
   xmlns:sodipodi="http://sodipodi.sourceforge.net/DTD/sodipodi-0.dtd"
   xmlns="http://www.w3.org/2000/svg"
   xmlns:svg="http://www.w3.org/2000/svg">
  <sodipodi:namedview
     id="namedview13"
     pagecolor="#505050"
     bordercolor="#eeeeee"
     borderopacity="1"
     inkscape:showpageshadow="0"
     inkscape:pageopacity="0"
     inkscape:pagecheckerboard="0"
     inkscape:deskcolor="#505050"
     inkscape:zoom="3.9709284"
     inkscape:cx="-8.1844841"
     inkscape:cy="31.10104"
     inkscape:window-width="2560"
     inkscape:window-height="1494"
     inkscape:window-x="-11"
     inkscape:window-y="-11"
     inkscape:window-maximized="1"
     inkscape:current-layer="Layer_1" />
  <defs
     id="defs1">
    <style
       id="style1">
      .cls-1 {
        fill: #ff765f;
        stroke: #e15841;
      }

      .cls-1, .cls-2, .cls-3, .cls-4, .cls-5 {
        stroke-miterlimit: 10;
      }

      .cls-2 {
        fill: #ffefb4;
        stroke: #e1d196;
      }

      .cls-3 {
        fill: #ffda9f;
        stroke: #e1bc81;
      }

      .cls-4 {
        fill: #7f7200;
        stroke: #615400;
      }

      .cls-5 {
        fill: #ffe;
        stroke: #e1e1d0;
      }
    </style>
  </defs>
  <g
     id="g36"
     transform="translate(-0.403396)">
    <path
       style="fill:none;fill-opacity:1;stroke:#000000;stroke-width:1;stroke-linecap:round;stroke-linejoin:round;stroke-dasharray:none;stroke-opacity:1"
       d="m 33.084203,65.161085 c 0,0 -4.123247,0.900539 -5.162521,-4.029284 -1.379054,-6.541575 -3.651539,-6.295757 -3.651539,-6.295757 0,0 -4.910691,4.65886 -3.273794,10.073211 1.636897,5.414352 5.918012,6.043926 9.947297,7.051248"
       id="path36"
       sodipodi:nodetypes="cscsc" />
    <path
       style="fill:none;fill-opacity:1;stroke:#000000;stroke-width:1;stroke-linecap:round;stroke-linejoin:round;stroke-dasharray:none;stroke-opacity:1"
       d="m 75.989695,65.161085 c 0,0 4.123247,0.900539 5.162521,-4.029284 1.379054,-6.541575 3.651539,-6.295757 3.651539,-6.295757 0,0 4.910691,4.65886 3.273794,10.073211 -1.636897,5.414352 -5.918012,6.043926 -9.947297,7.051248"
       id="path36-4"
       sodipodi:nodetypes="cscsc" />
  </g>
  <text
     xml:space="preserve"
     style="font-weight:bold;font-size:33.9203px;line-height:1.3;font-family:'Tw Cen MT';-inkscape-font-specification:'Tw Cen MT Bold';text-align:start;writing-mode:lr-tb;direction:ltr;text-anchor:start;fill:none;fill-opacity:1;stroke:#000000;stroke-width:1;stroke-linecap:round;stroke-linejoin:round;stroke-dasharray:none;stroke-opacity:1"
     x="45.363987"
     y="82.529846"
     id="text37"
     transform="scale(1.0101985,0.98990445)"><tspan
       sodipodi:role="line"
       id="tspan37"
       x="45.363987"
       y="82.529846"
       style="stroke-width:1">?</tspan></text>
  <path
     d="m 51.542969,47.220703 c -4.452951,0.182678 -8.051087,0.901096 -11.375,1.8125 -1.721878,1.554393 -3.141519,3.418828 -4.179688,5.5 -0.660144,1.323363 -1.166521,2.734743 -1.498047,4.207031 l -1.158203,5.15625 -1.982422,8.824219 c -0.761499,3.387603 -1.03194,6.855635 -0.814453,10.300781 0.08811,1.39571 0.255952,2.786922 0.503906,4.167969 l 0.640625,3.550781 c 0.94,5.24 3.479532,10.049066 7.269532,13.789066 l 3.93164,-2.63867 c 2.16,-1.44 4.078985,-3.210474 5.708985,-5.230474 0.34,-0.42 0.769765,-0.760234 1.259765,-0.990234 l 4.490235,-2.119141 4.480468,2.109375 c 0.490001,0.23 0.929532,0.57 1.269532,1 1.62,2.02 3.539453,3.780704 5.689453,5.220704 l 3.93164,2.63867 c 3.8,-3.74 6.349063,-8.558593 7.289063,-13.808593 l 0.640625,-3.550781 -0.0098,-0.0098 C 78.296698,83.449568 78.380358,79.67057 77.892578,75.953125 77.750339,74.8691 77.559628,73.79085 77.320312,72.720703 L 76.449219,68.84375 74.179687,58.730469 C 73.749938,56.821973 73.02931,55.016945 72.058594,53.371094 70.99999,51.576229 69.643859,49.970688 68.048828,48.623047 61.303684,47.391088 55.995919,47.038025 51.542969,47.220703 Z"
     style="fill:none;stroke:#000000;stroke-miterlimit:10"
     id="path33" />
  <path
     d="m 80.017578,50.408203 c -1.934264,0.07709 -4.1967,-0.14514 -6.837891,-0.738281 -1.798882,-0.403334 -3.506674,-0.750228 -5.130859,-1.046875 1.595031,1.347641 2.951162,2.953182 4.009766,4.748047 2.894982,-0.76572 5.583773,-1.743262 7.958984,-2.962891 z"
     style="fill:none;stroke:#000000;stroke-miterlimit:10"
     id="path32" />
  <path
     d="m 40.167969,49.033203 c -3.723973,1.021099 -7.103786,2.283331 -10.957032,3.306641 v 0.0098 c -0.749411,0.198313 -1.456897,0.325569 -2.123046,0.388672 2.563589,0.697876 5.587826,1.311688 8.90039,1.794922 1.038169,-2.081172 2.45781,-3.945607 4.179688,-5.5 z"
     style="fill:none;stroke:#000000;stroke-miterlimit:10"
     id="path31" />
  <path
     d="m 58.001953,4.6992187 c 2.309436,1.4340804 3.847656,3.9917781 3.847656,6.9101563 0,4.49 -3.638906,5.480469 -8.128906,5.480469 -4.49,0 -8.130859,-0.990469 -8.130859,-5.480469 0,-2.3562552 1.001869,-4.4780133 2.603515,-5.9628906 -3.883694,0.9360638 -7.503942,2.4662822 -10.804687,4.3066406 0.116897,0.100184 0.231576,0.205764 0.341797,0.316406 l 0.0098,-0.0098 c 2.62,2.62 1.459688,4.940703 -1.570312,7.970703 -3.03,3.03 -6.770391,5.62 -9.400391,3 -0.663108,-0.660587 -1.136797,-1.446466 -1.427734,-2.300782 -0.241567,0.228137 -0.478516,0.454123 -0.710938,0.679688 -4.154219,4.031676 -6.766724,8.983164 -7.660156,14.240234 1.388811,-3.051094 4.030061,-5.128906 6.330078,-5.128906 3.3,0 4.648438,4.27836 4.648438,9.568359 0,5.29 -1.348438,9.570313 -4.648438,9.570313 -2.190796,0 -4.690411,-1.891095 -6.123047,-4.707031 0.06225,0.292404 0.130204,0.584935 0.203125,0.876953 1.253876,5.042369 3.990907,9.250468 9.707032,8.708984 0.666149,-0.0631 1.373635,-0.190359 2.123046,-0.388672 v -0.0098 c 24.563091,-6.835979 25.035864,-6.063134 43.96875,-2.669922 2.641191,0.593141 4.903627,0.81537 6.837891,0.738281 6.623359,-0.263968 9.398994,-4.037128 10.347656,-8.451172 -1.468979,2.360953 -3.693398,3.892578 -5.666015,3.892578 -3.3,0 -4.648438,-4.280312 -4.648438,-9.570312 0,-5.29 1.348438,-9.568359 4.648438,-9.56836 1.587065,0 3.33654,0.989344 4.724609,2.605469 -0.987046,-3.00534 -2.485556,-5.847928 -4.404297,-8.40625 -0.654962,-0.874123 -1.387061,-1.795203 -2.195312,-2.736328 -0.238471,1.145799 -0.780238,2.205362 -1.634766,3.056641 -2.63,2.62 -6.370391,0.03 -9.400391,-3 -3.03,-3.03 -4.188359,-5.350703 -1.568359,-7.970703 l 0.0098,0.0098 C 70.772047,9.7258859 71.396146,9.3086128 72.074219,9.015625 68.074585,6.679125 63.381178,4.9917876 58.001953,4.6992187 Z m 7.177734,19.3203123 c 4.580001,0 9.400391,4.161016 9.400391,9.291016 0,3.318899 -2.016952,6.231914 -4.681641,7.875 -1.454102,0.896621 -3.101821,1.414062 -4.71875,1.414062 -4.419991,0 -7.004444,-3.874249 -7.179687,-8.755859 -0.0063,-0.17672 -0.0098,-0.353979 -0.0098,-0.533203 0,-5.13 2.609453,-9.291016 7.189453,-9.291016 z m -22.958984,0.371094 c 4.58,0 7.189453,4.159063 7.189453,9.289062 0,0.330089 -0.01176,0.657309 -0.0332,0.978516 -0.311788,4.670757 -2.870949,8.3125 -7.15625,8.3125 -1.47063,0 -2.965759,-0.429425 -4.318359,-1.181641 -2.85982,-1.590419 -5.082032,-4.626608 -5.082032,-8.109375 0,-5.13 4.820391,-9.289062 9.400391,-9.289062 z"
     style="fill:none;stroke:#000000;stroke-miterlimit:10"
     id="path30"
     sodipodi:nodetypes="csssccccsscccsssccscccscssscccssccccsssscssssscsssss" />
  <path
     d="m 23.300781,28.720703 c -2.300017,0 -4.941267,2.077812 -6.330078,5.128906 C 16.366887,35.176139 16,36.68606 16,38.289062 c 0,1.774727 0.452389,3.437568 1.177734,4.863282 1.432636,2.815936 3.932251,4.707031 6.123047,4.707031 3.3,0 4.648438,-4.280313 4.648438,-9.570313 0,-5.29 -1.348438,-9.568359 -4.648438,-9.568359 z"
     style="fill:none;stroke:#000000;stroke-miterlimit:10"
     id="path29" />
  <path
     d="m 42.220703,24.390625 c -4.58,0 -9.400391,4.159062 -9.400391,9.289062 0,3.482767 2.222212,6.518956 5.082032,8.109375 1.3526,0.752216 2.847729,1.181641 4.318359,1.181641 4.285301,0 6.844462,-3.641743 7.15625,-8.3125 0.02144,-0.321207 0.0332,-0.648427 0.0332,-0.978516 0,-5.129999 -2.609453,-9.289062 -7.189453,-9.289062 z"
     style="fill:none;stroke:#000000;stroke-miterlimit:10"
     id="path28" />
  <path
     d="m 65.179687,24.019531 c -4.58,0 -7.189453,4.161016 -7.189453,9.291016 0,0.179224 0.0034,0.356483 0.0098,0.533203 0.175243,4.88161 2.759696,8.755859 7.179687,8.755859 1.616929,0 3.264648,-0.517441 4.71875,-1.414062 2.664689,-1.643086 4.681641,-4.556101 4.681641,-7.875 0,-5.13 -4.82039,-9.291016 -9.400391,-9.291016 z"
     style="fill:none;stroke:#000000;stroke-miterlimit:10"
     id="path27" />
  <path
     d="m 84.699219,26.710937 c -3.3,10e-7 -4.648438,4.27836 -4.648438,9.56836 0,5.29 1.348438,9.570312 4.648438,9.570312 1.972617,0 4.197036,-1.531625 5.666015,-3.892578 C 91.353717,40.368336 92,38.403109 92,36.279297 92,33.533411 90.921984,31.060706 89.423828,29.316406 88.035759,27.700281 86.286284,26.710937 84.699219,26.710937 Z"
     style="fill:none;stroke:#000000;stroke-miterlimit:10"
     id="path26" />
  <path
     d="m 74.962891,8.5 c -0.27469,-0.011044 -0.548192,-0.00675 -0.81836,0.013672 -0.720448,0.054458 -1.41975,0.2208524 -2.070312,0.5019531 -0.678073,0.2929878 -1.302172,0.7102609 -1.84375,1.253906 l -0.0098,-0.0098 c -2.62,2.62 -1.461641,4.940703 1.568359,7.970703 3.03,3.03 6.770391,5.62 9.400391,3 0.854528,-0.851279 1.396295,-1.910842 1.634766,-3.056641 C 83.319695,15.793178 82.506443,13.038755 80.460937,11 78.883528,9.422591 76.885717,8.5773105 74.962891,8.5 Z"
     style="fill:none;stroke:#000000;stroke-miterlimit:10"
     id="path25" />
  <path
     d="m 53.720703,3.4804688 c -2.133745,-1e-7 -4.076947,0.821361 -5.527344,2.1660156 -1.601646,1.4848773 -2.603515,3.6066354 -2.603515,5.9628906 0,4.49 3.640859,5.480469 8.130859,5.480469 4.49,0 8.128906,-0.990469 8.128906,-5.480469 0,-2.9183782 -1.53822,-5.4760759 -3.847656,-6.9101563 -1.24369,-0.7722891 -2.709628,-1.2187499 -4.28125,-1.2187499 z"
     style="fill:none;stroke:#000000;stroke-miterlimit:10"
     id="path24" />
  <path
     d="M 33.199219,8.4941406 C 31.215754,8.5184569 29.132673,9.3673265 27.5,11 c -2.266039,2.25856 -3.021171,5.395642 -2.158203,7.929687 0.290937,0.854316 0.764626,1.640195 1.427734,2.300782 2.63,2.62 6.370391,0.03 9.400391,-3 3.03,-3.03 4.190312,-5.350703 1.570312,-7.970703 l -0.0098,0.0098 C 37.620248,10.158889 37.505569,10.053309 37.388672,9.953125 36.224134,8.9550881 34.741913,8.4752279 33.199219,8.4941406 Z"
     style="fill:none;stroke:#000000;stroke-miterlimit:10"
     id="path23" />
  <text
     xml:space="preserve"
     style="font-weight:bold;font-size:17.3333px;line-height:1.3;font-family:'Tw Cen MT';-inkscape-font-specification:'Tw Cen MT Bold';text-align:start;writing-mode:lr-tb;direction:ltr;text-anchor:start;fill:#ffffff;fill-opacity:1;stroke:#000000;stroke-width:0.8;stroke-linecap:round;stroke-linejoin:round;stroke-dasharray:none;stroke-opacity:1"
     x="16.121494"
     y="97.820602"
     id="text36"><tspan
       sodipodi:role="line"
       id="tspan36"
       x="16.121494"
       y="97.820602">unselected</tspan></text>
</svg>
