<?xml version="1.0" encoding="UTF-8"?>
<svg id="Layer_1" data-name="Layer 1" xmlns="http://www.w3.org/2000/svg" viewBox="0 0 108 108">
  <defs>
    <style>
      .cls-1, .cls-2, .cls-3, .cls-4, .cls-5, .cls-6, .cls-7, .cls-8, .cls-9 {
        stroke-miterlimit: 10;
      }

      .cls-1, .cls-7 {
        fill: #f1f5df;
        stroke: #d3d7c1;
      }

      .cls-2 {
        fill: #51553f;
        stroke: #6f735d;
      }

      .cls-3 {
        fill: #c9a364;
      }

      .cls-3, .cls-6 {
        stroke: #ab8546;
      }

      .cls-4 {
        fill: #d3ad6e;
        stroke: #b58f50;
      }

      .cls-5 {
        fill: #ab8546;
        stroke: #8d6728;
      }

      .cls-6 {
        fill: none;
      }

      .cls-7 {
        stroke-linecap: round;
      }

      .cls-8 {
        fill: #ddb778;
        stroke: #bf995a;
      }

      .cls-9 {
        fill: #b58f50;
        stroke: #977132;
      }
    </style>
  </defs>
  <g>
    <g>
      <path class="cls-1" d="M71.89,94.51c.22.51,1.54,3.65,0,7.07-.98,2.19-2.64,3.39-3.64,3.96-.3.17-.67-.04-.67-.38v-10.65h4.31Z"/>
      <path class="cls-1" d="M36.11,94.51c-.22.51-1.54,3.65,0,7.07.98,2.19,2.64,3.39,3.64,3.96.3.17.67-.04.67-.38v-10.65h-4.31Z"/>
    </g>
    <path class="cls-1" d="M73.37,85.65s10.21-.12,10.51-6.59c.41-8.95-12.11-8.6-13.03-4.86,1.61,3.59,3.28,4.8,5.45,5,.14.01-4.52,1.34-4.52,1.34"/>
    <g>
      <path class="cls-4" d="M61.13,17.5c-1.09.56-2.69.76-3.87,0-1.46-.93-1.32-2.7-2.03-4.55-.69-1.8-2.32-4.02-6.4-5.9-.04-.46-.1-1.5.49-2.52.78-1.36,2.34-2.16,4.07-2.13,2.19,2.49,4.14,4.37,5.52,5.61,1.79,1.62,3.31,2.83,4.62,3.89.25,2.09-.72,4.75-2.39,5.6Z"/>
      <path class="cls-3" d="M52.17,24.19c.06,2,1.62,3.27.93,5.03-.59,1.52-2.35,2.11-3,2.33-2.09.7-5.07.43-6.43-1.21.52.73,1.49,2.44,1,4.4-.05.25-.33,1.27-1.25,2.22-1.92,2-5.17.6-5.65,1.87.31-1.65,1.21-7.25-1.62-8.83,4.75-.76,9.27-8.05,7.27-17.53,2.07-2.6,4.13-4.39,5.41-5.41,4.08,1.88,5.71,4.1,6.4,5.9.71,1.86.57,3.62,2.03,4.55-4.31,2.89-5.13,5.15-5.09,6.69Z"/>
      <path class="cls-4" d="M36.15,29.99c-1.36-.77-3.05-.29-4.07.1,5.61-2.56,4.84-9.46,11.34-17.63,2,9.48-2.52,16.77-7.27,17.53Z"/>
      <path class="cls-5" d="M69.95,22.83c-2.99,3.85-3.97,7.32-4.36,9.3-2.5,2.01-5.75,2.57-8.4,1.45-.14-.06-.27-.13-.41-.19-2.42-1.21-3.4-3.46-3.68-4.16.69-1.76-.86-3.03-.93-5.03-.04-1.54.78-3.8,5.09-6.69,1.19.76,2.78.56,3.87,0,1.67-.85,2.64-3.51,2.39-5.6,2.2,1.79,3.78,3.2,4.97,5.6,1.02,2.08,1.34,4.03,1.45,5.33Z"/>
      <path class="cls-5" d="M37.77,38.83c-.03.06-.04.13-.04.2-.02.03-.02.08-.02.11-.56,2.77-2.58,9.14-5.91,9.06-2.24-.05-4.47-3.02-5.51-6.98,1.55-3.18-2.42-6.44-.97-9,1.07-1.9,3.58-.67,6.77-2.14,1.01-.39,2.71-.86,4.07-.1,2.83,1.59,1.93,7.18,1.62,8.83Z"/>
      <path class="cls-4" d="M34.32,63.3c-.85.7-1.74,1.18-2.9,1.65-1.19.47-2.91,1.04-5.13,1.35,2.04-4.01-7.18-11.94-5.33-14.81.38-.58.87-.46,1.26-1.26.76-1.57-.83-2.85-.58-4.55.33-2.27,3.46-2.02,4.65-4.45,1.05,3.96,3.27,6.93,5.51,6.98-.41.57-1.84,2.72-1.45,5.51.29,2.09,1.74,1.97,3.68,5.13.13.04,1.95.61,2.13,1.84.14.98-.86,1.81-1.83,2.61Z"/>
      <path class="cls-9" d="M39.65,51.19c-.1.94-.31,1.91-.68,2.91-.84,2.31-2.9,4.94-4.94,4.75-2.01-.18-3.39-3.04-3.68-5.13-.4-2.79,1.04-4.94,1.45-5.51,3.33.08,5.35-6.29,5.91-9.06-.14,3.23,2.47,7.14,1.94,12.05Z"/>
      <path class="cls-8" d="M38,71.53l-6.58-1.16c-2.52-.37-5.59-1.07-5.81-2.51-.1-.6.37-.95.68-1.55,2.22-.31,3.95-.87,5.13-1.35,1.16-.47,2.05-.95,2.9-1.65.55.3,2.46,1.45,3.39,3.87.76,1.96.44,3.69.29,4.36Z"/>
      <path class="cls-5" d="M53.29,70.95c-4.4,5.35-10.09,6.9-12.98,4.94-.46-.31-1.86-1.4-2.32-4.36.15-.67.46-2.39-.29-4.36.49-.03,3.57-.32,4.55-2.42.39-.77,1.7-3.13,4.45-4.12.8-.28,2.86-1.02,4.65,0,1.19.69,1.68,1.83,2.03,2.66,1.33,3.17.38,6.34-.1,7.65Z"/>
      <path class="cls-4" d="M83.31,60.5l-1.83,6.29c-2.38,1.4-5.57,2.93-9.49,3.97-3.94,1.05-7.59,1.33-10.75,1.23-1.05-7.8.11-10.98,1.07-11.35.98-.37,1.79,1.19,4.16,1.34,2.36.14,3.19-1.28,5.33-1.34,1.27-.03,3.08.42,5.33,2.66-.5-1.48.16-3.27,1.64-4.45-1.65-1.7-.94-4.16-.78-4.75.72-2.5,2.92-3.59,3.3-3.78,3.88-1.87,5.09-1.27,5.51-.87,2,1.89-2.55,9.49-3.48,11.05Z"/>
      <path class="cls-5" d="M81.28,50.32c-.38.18-2.58,1.27-3.3,3.78-2.55,1.45-5.67,1.04-7.56-.87h0c-.55-1.62-1.33-3.31-2.41-5.03-1.47-2.31-3.1-4.01-4.49-5.22.9.59,2.64.58,6.42-1.95,2.93,2.58,3.66,2.84,4.36,2.91,1.61.16,2.97-.64,3.68-1.16,1.79-.42,3.61.22,4.55,1.55,1.23,1.74.8,4.48-1.25,6Z"/>
      <path class="cls-3" d="M77.12,63.3c-2.24-2.24-4.06-2.7-5.33-2.66-.05-1.69-.31-4.37-1.37-7.41,1.89,1.91,5.02,2.32,7.56.87-.16.58-.87,3.04.78,4.75-1.48,1.19-2.14,2.98-1.64,4.45Z"/>
      <path class="cls-3" d="M77.98,42.77c-.71.53-2.07,1.33-3.68,1.16-.7-.08-1.42-.33-4.36-2.91-3.8-3.34-4.2-4.34-4.36-4.83-.22-.67-.44-1.77,0-4.07.39-1.97,1.37-5.45,4.36-9.3,1.38,1.04,2.96,2.48,4.36,4.45,4.4,6.19,3.95,13.11,3.68,15.49Z"/>
      <path class="cls-3" d="M69.95,41.03c-3.78,2.53-5.52,2.55-6.42,1.95-1.37-.92-1.02-3.53-2.3-3.88-.77-.23-1.24,1.08-1.87,1.76.63-1,1.18-2.37.81-3.89-.47-1.91-2.17-2.98-2.99-3.39,2.65,1.12,5.9.56,8.4-1.45-.44,2.3-.22,3.4,0,4.07.16.5.56,1.49,4.36,4.83Z"/>
      <path class="cls-9" d="M59.36,40.85s-.01.02-.02.03c-.5.79-1.04,1.33-1.21,1.5-3.37,3.38-7.69,1.28-9.78,3.48-.15.41-.4.82-.69,1.18-.58.72-1.39,1.24-2.11,1.15-1.01-.13-1.23-1.38-2.12-1.36-.7.02-1.06.79-2.04,1.94-.55.64-.49,1.5-1.74,2.41.53-4.91-2.08-8.82-1.94-12.05,0-.03,0-.08.02-.11.01-.06.03-.13.04-.2.49-1.26,3.73.13,5.65-1.87.92-.95,1.2-1.97,1.25-2.22.49-1.96-.49-3.67-1-4.4,1.36,1.64,4.34,1.91,6.43,1.21.65-.22,2.41-.81,3-2.33.28.7,1.26,2.96,3.68,4.16.14.06.27.13.41.19.82.41,2.51,1.48,2.99,3.39.37,1.52-.18,2.89-.81,3.89Z"/>
      <path class="cls-6" d="M37.77,38.83c-.01.08-.03.14-.04.2"/>
      <path class="cls-1" d="M72.59,95.69c-6.01,2.51-18.59,2.42-18.59,2.42,0,0-12.58.1-18.59-2.42-6.02-2.51-3.3-8.33-3.3-8.33,5.7-10.46,6.6-25.54,6.6-25.54l15.28-8.64,15.28,8.64s.91,15.08,6.6,25.54c0,0,2.72,5.81-3.3,8.33Z"/>
      <circle class="cls-2" cx="62.3" cy="64.76" r="2.11"/>
      <path class="cls-9" d="M43.91,16.05c.36.8,0,6.69-.49,8.47-.38,1.38-.61,4.55.43,6.2"/>
      <path class="cls-4" d="M30.35,53.72c-1.35.34-3.16.98-5.04,2.23-.85.57-1.56,1.16-2.14,1.71"/>
      <line class="cls-6" x1="39.65" y1="51.19" x2="39.63" y2="51.2"/>
      <path class="cls-9" d="M44.67,34.74c1.23,2.42,2.11,4.48,2.72,6.01,1.2,3.03,1.37,4.08.96,5.12"/>
      <path class="cls-3" d="M42.26,64.76c-.98,2.09-4.07,2.38-4.55,2.42-.93-2.43-2.84-3.57-3.39-3.87.97-.8,1.97-1.63,1.83-2.61-.17-1.23-2.71-1.83-2.28-1.93,2.04.19,4.26-2.36,5.1-4.67,2,3.11,2.87,5.79,3.29,7.56.32,1.37.4,2.24,0,3.1Z"/>
      <path class="cls-4" d="M51.36,60.64c-1.79-1.02-3.85-.28-4.65,0-2.75.99-4.07,3.35-4.45,4.12.4-.85.32-1.73,0-3.1-.42-1.77-1.29-4.45-3.29-7.56.37-1,.58-1.97.68-2.91,1.25-.91,1.19-1.77,1.74-2.41.98-1.15,1.34-1.92,2.04-1.94.9-.02,1.11,1.23,2.12,1.36.72.09,1.53-.43,2.11-1.15-.46,1.29-.42,3.35.69,6.67.02.04.03.1.05.14.06.17.13.35.18.51.61,1.74,1.52,3.81,2.77,6.28Z"/>
      <path class="cls-6" d="M48.35,45.87c-.28.3-.52.69-.69,1.18"/>
      <path class="cls-6" d="M78.76,58.85c1.16,1.2,3.04,1.56,4.78.94"/>
      <path class="cls-6" d="M77.12,63.3c.42,1.28,1.53,1.89,1.64,1.94,1.5.78,2.99.08,3.16,0"/>
      <path class="cls-3" d="M60.17,48.2c-.26.97-.85,1.65-2.04,3.02-1.41,1.64-2.7,2.48-3.39,2.88-1.27.76-3.31-.08-3.19.97.37,3.23-1.05,4.29-2.97-.71-.05-.16-.12-.33-.18-.51-.02-.04-.03-.1-.05-.14-1.11-3.31-1.15-5.37-.69-6.67.29-.36.54-.77.69-1.18,2.09-2.2,6.42-.11,9.78-3.48.47.53,2.75,3.14,2.04,5.81Z"/>
      <path class="cls-6" d="M70.42,53.21s-.05-.04-.09-.08"/>
      <path class="cls-3" d="M61.23,71.98c-3.27-.09-6.01-.58-7.94-1.04.47-1.31,1.42-4.48.1-7.65-.35-.83-.84-1.97-2.03-2.66-1.25-2.47-2.16-4.54-2.77-6.28,1.92,5.01,3.33,3.94,2.97.71-.12-1.05,1.92-.22,3.19-.97.69-.4,1.97-1.24,3.39-2.88,1.19-1.37,1.78-2.05,2.04-3.02l2.13,12.44c-.96.37-2.11,3.55-1.07,11.35Z"/>
      <path class="cls-5" d="M71.79,60.64c-2.14.05-2.97,1.48-5.33,1.34-2.37-.15-3.18-1.7-4.16-1.34l-2.13-12.44c.71-2.68-1.56-5.29-2.04-5.81.17-.17.71-.71,1.21-1.5.01-.01.02-.02.02-.03.63-.68,1.1-1.98,1.87-1.76,1.27.36.93,2.97,2.3,3.88,1.39,1.21,3.02,2.91,4.49,5.22,1.08,1.72,1.86,3.41,2.41,5.02h0c1.06,3.05,1.32,5.73,1.37,7.42Z"/>
    </g>
    <path class="cls-1" d="M36.15,79.99s-9.89,2.31-12.59,9.11,2.7,10.95,2.7,10.95c0,0,6.56-4.42,7.23-7.93s2.66-5.1,2.66-5.1"/>
  </g>
  <circle class="cls-2" cx="47.28" cy="71.08" r="2.11"/>
  <path class="cls-2" d="M57.75,77.37c7.18-2.77,9.27-3.06,9.52-2.59.32.62-2.19,3.05-5.3,3.79-1.7.4-3.16.2-4.05,0-.72,0-.85-1.02-.16-1.2Z"/>
  <path class="cls-7" d="M67.26,72.81s-1.06,2.76,1.84,4.48"/>
</svg>