<?xml version="1.0" encoding="UTF-8"?>
<svg id="Layer_1" data-name="Layer 1" xmlns="http://www.w3.org/2000/svg" xmlns:xlink="http://www.w3.org/1999/xlink" viewBox="0 0 108 108">
  <defs>
    <style>
      .cls-1 {
        fill: #fff1e7;
        stroke: #e1d3c9;
      }

      .cls-1, .cls-2, .cls-3, .cls-4, .cls-5, .cls-6, .cls-7, .cls-8, .cls-9 {
        stroke-miterlimit: 10;
      }

      .cls-2, .cls-4, .cls-9 {
        fill: none;
      }

      .cls-2, .cls-5, .cls-6, .cls-9 {
        stroke: #000;
      }

      .cls-3, .cls-6, .cls-9 {
        stroke-linecap: round;
      }

      .cls-3, .cls-8 {
        fill: #86cecb;
        stroke: #68b0ad;
      }

      .cls-4 {
        stroke: #e12885;
      }

      .cls-6 {
        fill: #ff9bf1;
      }

      .cls-7 {
        fill: url(#linear-gradient);
        stroke: url(#linear-gradient-2);
      }
    </style>
    <linearGradient id="linear-gradient" x1="52.93" y1="23.8" x2="53.64" y2="54.54" gradientUnits="userSpaceOnUse">
      <stop offset=".2" stop-color="#86cecb"/>
      <stop offset=".21" stop-color="#89cecb"/>
      <stop offset=".32" stop-color="#add9d4"/>
      <stop offset=".43" stop-color="#cae1da"/>
      <stop offset=".55" stop-color="#e1e8e0"/>
      <stop offset=".67" stop-color="#f2ede4"/>
      <stop offset=".82" stop-color="#fbf0e6"/>
      <stop offset="1" stop-color="#fff1e7"/>
    </linearGradient>
    <linearGradient id="linear-gradient-2" x1="53.16" y1="25.58" x2="53.16" y2="105.17" gradientUnits="userSpaceOnUse">
      <stop offset=".03" stop-color="#86cecb"/>
      <stop offset=".09" stop-color="#a1cfca"/>
      <stop offset=".16" stop-color="#bdd1c9"/>
      <stop offset=".22" stop-color="#d1d2c9"/>
      <stop offset=".29" stop-color="#ddd2c9"/>
      <stop offset=".36" stop-color="#e1d3c9"/>
    </linearGradient>
  </defs>
  <g>
    <path class="cls-8" d="M82.05,25.6c.24,6.33-10,9.69-18.37,11.38-6.97,1.41-14.16,1.41-21.14,0-8.37-1.69-18.62-5.05-18.38-11.38.18-4.8,6.06-7.89,12.48-9.85,10.7-3.26,22.23-3.26,32.93,0,6.41,1.95,12.29,5.05,12.47,9.85Z"/>
    <g>
      <g>
        <path class="cls-3" d="M46.99,26.65s-1.23-6.13-5.55-8.51"/>
        <path class="cls-3" d="M59.23,26.65s1.23-6.13,5.55-8.51"/>
      </g>
      <g>
        <path class="cls-3" d="M37.4,28.97s-1.55-2.53-6.19-1.13"/>
        <path class="cls-3" d="M68.83,28.97s1.55-2.53,6.19-1.13"/>
      </g>
      <g>
        <path class="cls-3" d="M37.13,33.76s2.3-1.83,3.49-.35"/>
        <path class="cls-3" d="M69.1,33.76s-2.3-1.83-3.49-.35"/>
      </g>
      <g>
        <polygon class="cls-2" points="75.21 14.91 67.25 20.6 73.03 31.88 82.7 27.14 75.21 14.91"/>
        <polygon class="cls-4" points="76.01 15.09 68.05 20.78 73.83 32.07 83.5 27.32 76.01 15.09"/>
        <polygon class="cls-2" points="76.84 15.35 68.88 21.04 74.66 32.33 84.33 27.58 76.84 15.35"/>
      </g>
      <path class="cls-8" d="M77.15,26.97c7.52,10.2,4.41,30.15,4.41,30.15l-3.11,4.41,22.63-2.75-6.87-3.47c-5.07-10.53-5.47-19.02-4.95-24.17.23-2.32,1.25-4.46,1.71-6.75.6-3.01-3.9-8.64-16.35-3.91"/>
      <path class="cls-1" d="M64.57,46.78l8.21-12.66c1.14-1.76,1.87-3.75,2.15-5.82l1.47-11.15c.52-3.94,2.14-7.64,4.68-10.69l.84-1.01h0c1.89,4.39,2.22,9.3.94,13.9l-3.45,12.44c-.38,1.36-.96,2.66-1.72,3.85l-13.05,20.3"/>
      <path class="cls-7" d="M66.59,78.44l.63,5.8v.08c.43,3.92-.1,7.89-1.51,11.49l-3.18,8.08-3.57-7.79c-.76-1.66-1.61-15.37-2.5-16.94l-1.52-2.69c-.4-.71-1.08-1.13-1.82-1.13h0c-.73,0-1.42.43-1.82,1.13l-1.53,2.71c-.89,1.57-1.69,15.26-2.44,16.91l-3.58,7.81-3-7.68c-1.3-3.32-1.99-6.94-1.8-10.57.03-.55.07-1.11.13-1.66l.6-5.55c1.19-10.97,1.38-22.05.57-33.06l-1.14-15.49-1.38-3.66,14.22,2.46h2.36l14.17-1.34-1.33,2.54-1.14,15.49c-.81,11.01-.62,22.09.57,33.06Z"/>
      <g>
        <polygon class="cls-2" points="30.58 14.91 38.54 20.6 32.76 31.88 23.09 27.14 30.58 14.91"/>
        <polygon class="cls-4" points="29.77 15.09 37.74 20.78 31.95 32.07 22.29 27.32 29.77 15.09"/>
        <polygon class="cls-2" points="28.95 15.35 36.91 21.04 31.13 32.33 21.46 27.58 28.95 15.35"/>
      </g>
      <path class="cls-8" d="M30.85,26.97c-7.52,10.2-4.41,30.15-4.41,30.15l3.11,4.41-22.63-2.75,6.87-3.47c5.07-10.53,5.47-19.02,4.95-24.17-.23-2.32-1.25-4.46-1.71-6.75-.6-3.01,3.9-8.64,16.35-3.91"/>
      <g>
        <path class="cls-8" d="M1.57,60.99c-1.06-1.03-.76-2.84.56-3.51,2.12-1.08,6.64-2.3,15.53-.92,14,2.18,15.55,7.18,15.55,7.18,0,0,.84,5.91-16.68,2.67-9.42-1.74-13.35-3.85-14.97-5.42Z"/>
        <path class="cls-8" d="M106.43,60.99c1.06-1.03.76-2.84-.56-3.51-2.12-1.08-6.64-2.3-15.53-.92-14,2.18-15.55,7.18-15.55,7.18,0,0-.84,5.91,16.68,2.67,9.42-1.74,13.35-3.85,14.97-5.42Z"/>
      </g>
      <g>
        <g>
          <line class="cls-3" x1="14.51" y1="60.5" x2="6.84" y2="57.68"/>
          <line class="cls-3" x1="13.73" y1="62.33" x2="5.43" y2="61.54"/>
          <line class="cls-3" x1="29.39" y1="65.56" x2="21.35" y2="63.17"/>
          <line class="cls-3" x1="29.24" y1="61.66" x2="21.35" y2="61.13"/>
        </g>
        <g>
          <line class="cls-3" x1="93.49" y1="60.5" x2="101.16" y2="57.68"/>
          <line class="cls-3" x1="94.27" y1="62.33" x2="102.57" y2="61.54"/>
          <line class="cls-3" x1="78.61" y1="65.56" x2="86.65" y2="63.17"/>
          <line class="cls-3" x1="78.76" y1="61.66" x2="86.65" y2="61.13"/>
        </g>
      </g>
      <path class="cls-1" d="M41.52,48.33l-12.51,10.37c-.98.81-2.46.32-2.77-.91l-4.14-16.8c-.65-2.65-1.85-5.12-3.53-7.27l-1.78-2.28h0c-1.66,4.3-1.74,9.05-.21,13.41l6.51,18.56c.69,1.97,3.05,2.78,4.8,1.64l14.66-9.53"/>
    </g>
  </g>
  <g>
    <polyline class="cls-9" points="44.46 36.23 48.57 38.95 44.46 40.97"/>
    <path class="cls-6" d="M51.07,40.97l2.42,1.49,3-1.76c.36-.21.17-.76-.24-.7-1.28.18-3.03.31-4.92.16-.46-.04-.66.57-.27.81Z"/>
    <line class="cls-6" x1="45.28" y1="36.77" x2="45.67" y2="35.7"/>
    <line class="cls-6" x1="46.51" y1="37.43" x2="46.9" y2="36.35"/>
    <line class="cls-6" x1="47.79" y1="38.31" x2="48.18" y2="37.23"/>
    <g>
      <polyline class="cls-9" points="62.35 36.5 58.24 39.21 62.35 41.23"/>
      <line class="cls-9" x1="61.52" y1="37.04" x2="61.14" y2="35.97"/>
      <line class="cls-9" x1="60.29" y1="37.69" x2="59.91" y2="36.62"/>
      <line class="cls-9" x1="59.01" y1="38.57" x2="58.63" y2="37.5"/>
    </g>
  </g>
  <polygon class="cls-8" points="56.43 47.2 55.13 50.65 51.99 50.65 50.76 47.2 56.43 47.2"/>
  <polygon class="cls-8" points="51.7 51.35 50.17 67.31 56.05 65.05 55.59 51.22 51.7 51.35"/>
  <line class="cls-5" x1="49.74" y1="62.32" x2="51.97" y2="62.32"/>
  <line class="cls-5" x1="49.85" y1="61.18" x2="52.08" y2="61.18"/>
</svg>