<?xml version="1.0" encoding="UTF-8"?>
<svg id="Layer_1" data-name="Layer 1" xmlns="http://www.w3.org/2000/svg" viewBox="0 0 108 108">
  <defs>
    <style>
      .cls-1 {
        fill: #ff765f;
        stroke: #e15841;
      }

      .cls-1, .cls-2, .cls-3, .cls-4, .cls-5 {
        stroke-miterlimit: 10;
      }

      .cls-2 {
        fill: #ffefb4;
        stroke: #e1d196;
      }

      .cls-3 {
        fill: #ffda9f;
        stroke: #e1bc81;
      }

      .cls-4 {
        fill: #7f7200;
        stroke: #615400;
      }

      .cls-5 {
        fill: #ffe;
        stroke: #e1e1d0;
      }
    </style>
  </defs>
  <g>
    <path class="cls-3" d="M73.05,68.5l6.45.65c1.06.11,2.07-.44,2.57-1.38l.18-.33c1-1.89,2.69-3.32,4.71-4.01l1.36-.46h0c1.53,2.54,1.6,5.7.19,8.31l-.74,1.38c-.81,1.51-2.32,2.51-4.02,2.69l-10.2,1.05"/>
    <g>
      <path class="cls-2" d="M82.51,48.96c-15.15,9.98-48.3,7.14-59.85,2.3l31.67-19.68,28.17,17.38Z"/>
      <path class="cls-3" d="M77.64,87.16l-.64,3.55c-.94,5.25-3.49,10.07-7.29,13.81h0s-3.93-2.64-3.93-2.64c-2.15-1.44-4.07-3.2-5.69-5.22h0c-.34-.43-.78-.77-1.27-1l-4.48-2.11-4.49,2.12c-.49.23-.92.57-1.26.99h0c-1.63,2.02-3.55,3.79-5.71,5.23l-3.93,2.64h0c-3.79-3.74-6.33-8.55-7.27-13.79l-.64-3.55c-.86-4.79-.76-9.71.31-14.47l3.14-13.98c1.27-5.64,5.1-10.37,10.35-12.79l9.5-4.37,9.49,4.36c5.26,2.42,9.08,7.15,10.35,12.79l3.14,13.99c1.06,4.74,1.17,9.65.31,14.43Z"/>
      <path class="cls-1" d="M29.21,52.34c11.56-3.07,18.86-8.3,43.97-2.67,14.65,3.29,17.65-4.83,17.6-12.16-.04-6-2.16-11.8-5.76-16.6-5.2-6.94-15.24-16.84-29.98-16.23-12.93.53-23.63,8.35-30.41,14.93s-9.45,15.61-7.25,24.42c1.4,5.63,4.65,10.22,11.83,8.32Z"/>
    </g>
    <path class="cls-3" d="M34.13,62.96l-6.43,7.53c-1.33,1.55-1.61,3.74-.73,5.58l2.61,5.47c.72,1.51,1.96,2.7,3.49,3.37l3.01,1.32h0c1.34-2.09,1.89-4.56,1.58-6.99-.12-.96-.55-1.85-1.16-2.6h0c-.6-.74-.74-1.75-.36-2.62.04-.09.07-.18.09-.23l1.23-1.39"/>
  </g>
  <g>
    <path class="cls-5" d="M92,36.28c0,5.28-4,9.57-7.3,9.57s-4.65-4.28-4.65-9.57,1.35-9.57,4.65-9.57,7.3,4.28,7.3,9.57Z"/>
    <path class="cls-5" d="M16,38.29c0,5.28,4,9.57,7.3,9.57s4.65-4.28,4.65-9.57-1.35-9.57-4.65-9.57-7.3,4.28-7.3,9.57Z"/>
    <path class="cls-5" d="M49.41,33.68c0,5.13-2.61,9.29-7.19,9.29s-9.4-4.16-9.4-9.29,4.82-9.29,9.4-9.29,7.19,4.16,7.19,9.29Z"/>
    <path class="cls-5" d="M57.99,33.31c0,5.13,2.61,9.29,7.19,9.29s9.4-4.16,9.4-9.29-4.82-9.29-9.4-9.29-7.19,4.16-7.19,9.29Z"/>
    <path class="cls-5" d="M70.22,10.26c-2.62,2.62-1.46,4.94,1.57,7.97,3.03,3.03,6.77,5.62,9.4,3s2.3-7.21-.73-10.23c-3.03-3.03-7.61-3.36-10.23-.73Z"/>
    <path class="cls-5" d="M37.74,10.26c2.62,2.62,1.46,4.94-1.57,7.97-3.03,3.03-6.77,5.62-9.4,3s-2.3-7.21.73-10.23c3.03-3.03,7.61-3.36,10.23-.73Z"/>
    <path class="cls-5" d="M61.85,11.61c0,4.49-3.64,5.48-8.13,5.48s-8.13-.99-8.13-5.48,3.64-8.13,8.13-8.13,8.13,3.64,8.13,8.13Z"/>
  </g>
  <circle class="cls-4" cx="43.96" cy="57.3" r="1.63"/>
  <circle class="cls-4" cx="64.66" cy="57.3" r="1.63"/>
  <path class="cls-4" d="M50.29,56.18c-.18.56,1.79,2.93,3.14,2.96,1.35.03,2.32-1.1,2.84-1.77,3.1-3.98-2.54-.44-2.54-.44-.2-.02-3.22-1.42-3.43-.74Z"/>
</svg>