<?xml version="1.0" encoding="UTF-8"?>
<svg id="Layer_1" data-name="Layer 1" xmlns="http://www.w3.org/2000/svg" viewBox="0 0 432 432">
  <defs>
    <style>
      .cls-1 {
        stroke: #c3bab4;
      }

      .cls-1, .cls-2, .cls-3, .cls-4, .cls-5, .cls-6 {
        stroke-miterlimit: 10;
        stroke-width: 4px;
      }

      .cls-1, .cls-2, .cls-5 {
        stroke-linecap: round;
      }

      .cls-1, .cls-5 {
        fill: none;
      }

      .cls-7 {
        fill: #8f795a;
      }

      .cls-2, .cls-3 {
        fill: #f0e7e1;
      }

      .cls-2, .cls-3, .cls-5 {
        stroke: #d2c9c3;
      }

      .cls-4 {
        fill: #796a54;
        stroke: #64553f;
      }

      .cls-8 {
        fill: #e1d8d2;
      }

      .cls-9 {
        fill: #715b3c;
      }

      .cls-6 {
        fill: #ad9778;
        stroke: #8f795a;
      }
    </style>
  </defs>
  <g>
    <path class="cls-3" d="M328.31,380.26l-1.45,6.62c-1.89,8.65-6.7,16.39-13.62,21.92l-21.79,17.42-19.78-15.93c-7.68-6.18-12.7-15.06-14.04-24.83h0s-24.28-10.84-24.28-10.84l-17.34-3.9h0l-17.34,3.9-24.28,10.84h0c-1.34,9.76-6.37,18.65-14.04,24.83l-19.78,15.93-21.79-17.42c-6.92-5.53-11.72-13.27-13.62-21.92l-1.45-6.62s-34.69-63.32-33.81-114.48c.86-51.16,41.18-94.1,61.57-95.4,20.39-1.3,28.18-48.57,28.18-48.57h112.75s7.81,47.27,28.19,48.57c20.37,1.3,60.71,44.23,61.57,95.4.86,51.16-33.83,114.48-33.83,114.48"/>
    <g>
      <path class="cls-3" d="M322.23,299.82l18.14,18.67.15,3.99c.33,8.84,3.82,17.26,9.84,23.74l15.24,16.42,18.46-6.83c10.11-3.74,18.09-11.72,21.82-21.84h0c4.95-13.4,3.47-28.33-4.01-40.49l-11.17-18.16c-12.48-20.29-26.63-39.5-42.29-57.44"/>
      <path class="cls-2" d="M109.77,299.82l-18.14,18.67-.15,3.99c-.33,8.84-3.82,17.26-9.84,23.74l-15.24,16.42-18.46-6.83c-10.11-3.74-18.09-11.72-21.82-21.84h0c-4.95-13.4-3.47-28.33,4.01-40.49l11.17-18.16c12.48-20.29,26.63-39.5,42.29-57.44"/>
    </g>
    <path class="cls-6" d="M385.78,122.86c-11.64,26.64-54.15,35.34-90.91,42.87-32.54,6.66-125.2,6.66-157.74,0-36.77-7.53-79.27-16.24-90.91-42.87-10.83-24.78,10.4-52.86,16.26-60.61,2.23-2.95,11.55-14.91,28.9-26.05C129.49,11.74,164.94,7.65,196.6,6.27c12.92-.57,25.86-.57,38.78,0,31.68,1.39,67.13,5.47,105.24,29.94,17.35,11.14,26.67,23.1,28.9,26.05,5.86,7.75,27.09,35.83,16.26,60.61Z"/>
  </g>
  <g>
    <g>
      <g>
        <path class="cls-7" d="M168.86,239.81c-3.88,0-7.04-3.16-7.04-7.04s3.16-7.04,7.04-7.04,7.04,3.16,7.04,7.04-3.16,7.04-7.04,7.04Z"/>
        <path class="cls-9" d="M168.86,227.72c2.79,0,5.04,2.26,5.04,5.04s-2.26,5.04-5.04,5.04-5.04-2.26-5.04-5.04,2.26-5.04,5.04-5.04M168.86,223.72c-4.99,0-9.04,4.06-9.04,9.04s4.06,9.04,9.04,9.04,9.04-4.06,9.04-9.04-4.06-9.04-9.04-9.04h0Z"/>
      </g>
      <g>
        <circle class="cls-7" cx="263.14" cy="240.79" r="7.04"/>
        <path class="cls-9" d="M263.14,235.75c2.79,0,5.04,2.26,5.04,5.04s-2.26,5.04-5.04,5.04-5.04-2.26-5.04-5.04,2.26-5.04,5.04-5.04M263.14,231.75c-4.99,0-9.04,4.06-9.04,9.04s4.06,9.04,9.04,9.04,9.04-4.06,9.04-9.04-4.06-9.04-9.04-9.04h0Z"/>
      </g>
    </g>
    <g>
      <path class="cls-7" d="M216.11,252.72c-4.01,0-7.99-.48-11.84-1.42-3.66-.89-6.85-2.69-9.22-5.19-.98-1.03-1.36-2.39-1.05-3.72.33-1.41,1.41-2.57,2.88-3.12.59-.21,1.2-.32,1.84-.32s1.28.11,1.88.34l.7.26c5.47,2.07,11.31,3.12,17.33,3.12,4.34,0,8.64-.56,12.78-1.66.45-.12.91-.18,1.38-.18.99,0,1.94.27,2.75.77l.5.31c1.36.84,2.13,2.24,2.07,3.73-.06,1.51-.97,2.86-2.42,3.61l-1.31.67c-.43.22-.89.38-1.38.47l-7.39,1.42c-3.11.6-6.3.9-9.49.9Z"/>
      <path class="cls-9" d="M198.72,240.95c.4,0,.8.07,1.17.21l.7.26c5.71,2.16,11.86,3.25,18.04,3.25,4.47,0,8.96-.57,13.29-1.72h0c.28-.08.57-.11.86-.11.6,0,1.2.16,1.69.47l.5.31c1.59.99,1.48,2.99-.21,3.86l-1.31.67c-.26.13-.55.23-.85.29l-7.39,1.42c-3,.58-6.05.87-9.11.87-3.83,0-7.66-.45-11.36-1.36h0c-3.26-.8-6.15-2.41-8.25-4.63-1.14-1.2-.61-2.96,1.07-3.58h0c.37-.13.76-.2,1.15-.2M198.72,236.95c-.87,0-1.72.15-2.53.45-2.11.78-3.66,2.47-4.14,4.54-.46,1.97.12,4.05,1.55,5.55,2.64,2.78,6.17,4.78,10.2,5.76,4,.98,8.14,1.47,12.31,1.47,3.31,0,6.63-.32,9.86-.94l7.39-1.42c.67-.13,1.31-.35,1.91-.66l1.31-.67c2.11-1.08,3.42-3.06,3.51-5.3.09-2.22-1.04-4.28-3.02-5.51l-.5-.31c-1.13-.7-2.44-1.07-3.8-1.07-.64,0-1.28.08-1.89.25-3.97,1.05-8.09,1.59-12.26,1.59-5.7,0-11.45-1.03-16.62-2.99l-.7-.26c-.82-.31-1.69-.47-2.59-.47h0Z"/>
    </g>
  </g>
  <ellipse class="cls-8" cx="216" cy="331.79" rx="23.32" ry="21.83"/>
  <g>
    <line class="cls-1" x1="208.15" y1="323.99" x2="223.35" y2="339.09"/>
    <line class="cls-1" x1="223.85" y1="323.99" x2="208.4" y2="339.34"/>
  </g>
  <path class="cls-5" d="M193.66,339.2c.49,1.67,1.52,4.35,3.81,6.91,4.24,4.73,9.77,5.63,11.43,5.84"/>
  <path class="cls-5" d="M221.97,310.55c1.19.05,6.38.39,10.69,4.78,4.27,4.35,4.7,9.65,4.77,10.89"/>
  <path class="cls-4" d="M151.78,15.34c-.17-3.98,33.51-9.5,65.36-9.56,30.34-.06,63.17,4.82,63.07,8.76-.1,4.17-37.08,7.18-64.41,7.33-26.88.14-63.85-2.38-64.03-6.53Z"/>
</svg>