<?xml version="1.0" encoding="UTF-8"?>
<svg id="Layer_1" data-name="Layer 1" xmlns="http://www.w3.org/2000/svg" xmlns:xlink="http://www.w3.org/1999/xlink" viewBox="0 0 108 108">
  <defs>
    <style>
      .cls-1 {
        fill: #b7a6ff;
      }

      .cls-1, .cls-2, .cls-3, .cls-4, .cls-5, .cls-6, .cls-7, .cls-8 {
        stroke-miterlimit: 10;
      }

      .cls-1, .cls-3 {
        stroke: #9988e1;
      }

      .cls-2 {
        fill: url(#linear-gradient-7);
        stroke: url(#linear-gradient-8);
      }

      .cls-3 {
        fill: none;
      }

      .cls-4 {
        fill: url(#linear-gradient);
        stroke: url(#linear-gradient-2);
      }

      .cls-5 {
        fill: url(#linear-gradient-3);
        stroke: url(#linear-gradient-4);
      }

      .cls-6 {
        stroke: #e1e1d0;
      }

      .cls-6, .cls-8 {
        fill: #ffe;
      }

      .cls-7 {
        fill: url(#linear-gradient-5);
        stroke: url(#linear-gradient-6);
      }

      .cls-8 {
        stroke: #e1cebc;
      }
    </style>
    <linearGradient id="linear-gradient" x1="46.22" y1="67.69" x2="1.47" y2="67.69" gradientTransform="translate(0 136.78) scale(1 -1)" gradientUnits="userSpaceOnUse">
      <stop offset=".26" stop-color="#fffffa"/>
      <stop offset=".39" stop-color="#fbfdfa"/>
      <stop offset=".49" stop-color="#f1f9fa"/>
      <stop offset=".59" stop-color="#e0f3fa"/>
      <stop offset=".68" stop-color="#c8eafb"/>
      <stop offset=".77" stop-color="#a9defb"/>
      <stop offset=".85" stop-color="#83d0fc"/>
      <stop offset=".93" stop-color="#57bffd"/>
      <stop offset="1" stop-color="#2aaeff"/>
    </linearGradient>
    <linearGradient id="linear-gradient-2" x1=".38" y1="67.69" x2="46.6" y2="67.69" gradientTransform="translate(0 136.78) scale(1 -1)" gradientUnits="userSpaceOnUse">
      <stop offset=".08" stop-color="#0c90e1"/>
      <stop offset=".09" stop-color="#1493e0"/>
      <stop offset=".16" stop-color="#52aadf"/>
      <stop offset=".22" stop-color="#85bede"/>
      <stop offset=".28" stop-color="#accddd"/>
      <stop offset=".34" stop-color="#c9d8dc"/>
      <stop offset=".39" stop-color="#dadedc"/>
      <stop offset=".42" stop-color="#e1e1dc"/>
    </linearGradient>
    <linearGradient id="linear-gradient-3" x1="49.39" y1="73.06" x2="48.97" y2="118.98" gradientUnits="userSpaceOnUse">
      <stop offset=".26" stop-color="#fffffa"/>
      <stop offset=".36" stop-color="#f0fcf5"/>
      <stop offset=".53" stop-color="#c8f6e9"/>
      <stop offset=".78" stop-color="#8aecd5"/>
      <stop offset="1" stop-color="#4be3c2"/>
    </linearGradient>
    <linearGradient id="linear-gradient-4" x1="49.29" y1="105.91" x2="49.29" y2="40.24" gradientUnits="userSpaceOnUse">
      <stop offset=".08" stop-color="#2dc5a4"/>
      <stop offset=".42" stop-color="#e1e1dc"/>
    </linearGradient>
    <linearGradient id="linear-gradient-5" x1="54.44" y1="71.97" x2="9.69" y2="71.97" gradientTransform="translate(116.07 136.78) rotate(-180)" xlink:href="#linear-gradient"/>
    <linearGradient id="linear-gradient-6" x1="8.6" y1="71.97" x2="54.82" y2="71.97" gradientTransform="translate(116.07 136.78) rotate(-180)" xlink:href="#linear-gradient-2"/>
    <linearGradient id="linear-gradient-7" x1="42.68" y1="40.26" x2="41.74" y2="9.2" gradientUnits="userSpaceOnUse">
      <stop offset="0" stop-color="#fff"/>
      <stop offset="1" stop-color="#d7aad7"/>
    </linearGradient>
    <linearGradient id="linear-gradient-8" x1="42.88" y1="55.69" x2="42.88" y2="2.09" gradientUnits="userSpaceOnUse">
      <stop offset="0" stop-color="#e1e1e1"/>
      <stop offset="1" stop-color="#b98cb9"/>
    </linearGradient>
  </defs>
  <path class="cls-6" d="M7.05,44.59s8.46,18.76,19.78,1.6l2.69.46s11.78,19.03,24.34,0l1.18-.94s11.98,19.35,24.75,0l-9.28-11.21-22.05-7.76-28.36,8.27-13.05,9.58"/>
  <path class="cls-4" d="M41.17,78.81s-5.76-.6-9.33-5.23c-7.91-10.25-17.29,0-17.29,0,0,0-.24.22-.69.49-1.91,1.16-4.22,1.15-6.18.09l-6.22-3.35,4.27-2.11c1.98-.98,3.91-2.05,5.8-3.22,3.49-2.17,10.02-5.92,13.71-6.11,5.2-.26,14.8,9.29,14.8,9.29,0,0,1.97,2.7,6.17-2.3"/>
  <path class="cls-5" d="M49.43,40.31c.81,5.43,4.88,7.62,4.88,7.62,0,0,12.71,7.44,15.05,21.41,1.88,11.22-4.72,21.32-7.39,24.86-.68.9-1.19,1.94-1.52,3.06-.82,2.76-2.75,7.89-5.87,8.13-4.28.33-6.32-10.07-6.32-10.07l-2.53-2.3h-2.03l-2.53,2.3s-2.04,10.4-6.32,10.07c-1.71-.13-3.06-1.73-4.07-3.61-2.17-4.03-2.47-9.04-.95-13.43,1.99-5.75,6.47-8.02,9.88-10.21,1.97-1.26,5.1-4.34,5-8.61s-1.87-6.87-5.78-10.22c-7.99-6.84-6.69-19.01-6.69-19.01"/>
  <path class="cls-7" d="M66.68,74.53s5.76-.6,9.33-5.23c7.91-10.25,17.29,0,17.29,0,0,0,.24.22.69.49,1.91,1.16,4.22,1.15,6.18.09l6.22-3.35-4.27-2.11c-1.98-.98-3.91-2.05-5.8-3.22-3.49-2.17-10.02-5.92-13.71-6.11-5.2-.26-14.8,9.29-14.8,9.29,0,0-1.97,2.7-6.17-2.3"/>
  <path class="cls-3" d="M36.72,47.32c.39.36.38.96.03,1.28-.38.35-.99.2-1.26-.15-.34-.44,0-1.05.07-1.18.23-.42.7-.78,1.23-.77.83.02,1.51.97,1.37,1.83-.11.74-.8,1.22-1.41,1.33-1.04.17-2.13-.75-2.26-1.8-.14-1.23,1.08-2.28,2.21-2.36,1.43-.1,2.68,1.37,2.63,2.8-.05,1.47-1.44,2.44-2.58,2.63-1.83.31-3.71-1.23-3.99-3.01-.34-2.17,1.78-4.15,3.86-4.32,2.48-.2,4.85,2.19,4.65,4.81-.17,2.12-1.98,3.93-4.34,4.14"/>
  <path class="cls-3" d="M49.01,46.05c.39.36.38.96.03,1.28-.38.35-.99.2-1.26-.15-.34-.44,0-1.05.07-1.18.23-.42.7-.78,1.23-.77.83.02,1.51.97,1.37,1.83-.11.74-.8,1.22-1.41,1.33-1.04.17-2.13-.75-2.26-1.8-.14-1.23,1.08-2.28,2.21-2.36,1.43-.1,2.68,1.37,2.63,2.8-.05,1.47-1.44,2.44-2.58,2.63-1.83.31-3.71-1.23-3.99-3.01-.34-2.17,1.78-4.15,3.86-4.32,2.48-.2,4.85,2.19,4.65,4.81-.17,2.12-1.98,3.93-4.34,4.14"/>
  <path class="cls-8" d="M13.72,52.47c-.55-1.6-1.32-4.57-.77-8.2.31-2.05.96-3.71,1.53-4.89"/>
  <path class="cls-6" d="M17.79,53.4c-.05-.95-.66-1.98-.77-8.2-.09-5.5,1.21-6.35,1.79-7.54"/>
  <path class="cls-6" d="M21.35,52.08c-.55-1.6-1.32-4.57-.77-8.2.31-2.05.96-3.71,1.53-4.89"/>
  <path class="cls-6" d="M72.86,52.57c.66-1.28,1.8-3.23.77-8.2-.42-2.03-.96-3.71-1.53-4.89"/>
  <path class="cls-6" d="M69.75,53.5c.53.63,1.2-.21.77-8.2-.29-5.49-1.21-6.35-1.79-7.54"/>
  <path class="cls-6" d="M65.86,54c.93-.89.99-1.97.77-8.2-.07-2.07-.96-3.71-1.53-4.89"/>
  <path class="cls-2" d="M80.78,47.69c-.13,2.24-2.83,2.77-3.59.69-1.41-3.87-2.72-7.13-3.91-7.02-3.92.36-6.43,7.02-6.43,7.02,0,0-6.35,14.42-15.4-.27-9.04-14.69-15.11,0-15.11,0,0,0-6.06,15.56-15.04.5-2.97-4.97-5.76-6.66-8.18-6.69-1.46-.02-3.01,3.51-4.42,7.51-.81,2.28-3.82,1.64-3.81-.82h0c-.45-20.46,17.97-18.41,21.95-33.78,3.56-13.74,27.26-17.71,29.78-2.59,2.82,16.86,26.06,16.16,24.17,35.42,0,0,0,0,0,0Z"/>
  <path class="cls-1" d="M41.93,53.82s1.28,3.14,2.49,2.69,2.62-1.32,2.62-1.32l1.35,1.37s1.82-.27,2.09-2.17-2.09.22-2.09.22c0,0-.61-1.7-1.82-1.02s-2.56,1.4-2.56,1.4c0,0-2.09-3.41-2.09-2.29v1.12Z"/>
</svg>